<svg xmlns="http://www.w3.org/2000/svg" width="95" height="95" viewBox="0 0 95 95">
  <metadata><?xpacket begin="﻿" id="W5M0MpCehiHzreSzNTczkc9d"?>
<x:xmpmeta xmlns:x="adobe:ns:meta/" x:xmptk="Adobe XMP Core 5.6-c138 79.159824, 2016/09/14-01:09:01        ">
   <rdf:RDF xmlns:rdf="http://www.w3.org/1999/02/22-rdf-syntax-ns#">
      <rdf:Description rdf:about=""/>
   </rdf:RDF>
</x:xmpmeta>
                                                                                                    
                                                                                                    
                                                                                                    
                                                                                                    
                                                                                                    
                                                                                                    
                                                                                                    
                                                                                                    
                                                                                                    
                                                                                                    
                                                                                                    
                                                                                                    
                                                                                                    
                                                                                                    
                                                                                                    
                                                                                                    
                                                                                                    
                                                                                                    
                                                                                                    
                                                                                                    
                           
<?xpacket end="w"?></metadata>
<defs>
    <style>
      .cls-1 {
        fill: #0169b4;
        fill-rule: evenodd;
      }
    </style>
  </defs>
  <path class="cls-1" d="M1363.17,793.749a1.585,1.585,0,0,0-3.17,0v3.167a1.585,1.585,0,0,0,3.17,0v-3.167Zm0,0-1.59,17.416a1.584,1.584,0,0,0-1.58,1.584v6.333a1.585,1.585,0,0,0,3.17,0v-6.333a1.586,1.586,0,0,0-1.59-1.584h0Zm0,0,7.92-36.416a1.585,1.585,0,0,0-3.17,0v3.167a1.585,1.585,0,0,0,3.17,0v-3.167Zm0,0-6.33,9.5a1.585,1.585,0,0,0-3.17,0v3.166a1.585,1.585,0,0,0,3.17,0V784.25Zm0,0,0,19a1.585,1.585,0,0,0-3.17,0v3.167a1.585,1.585,0,0,0,3.17,0v-3.167Zm0,0,6.33-19a1.585,1.585,0,0,0-3.17,0v3.166a1.585,1.585,0,0,0,3.17,0V784.25Zm0,0-12.67-9.5a1.58,1.58,0,1,0-3.16,0v3.167a1.58,1.58,0,1,0,3.16,0v-3.167Zm0,0,6.34,0a1.585,1.585,0,0,0-3.17,0v3.167a1.585,1.585,0,0,0,3.17,0v-3.167Zm0,0,6.33-15.832v-3.168a1.585,1.585,0,0,0-3.17,0v3.168a1.585,1.585,0,0,0,3.17,0h0Zm0,0-12.67,25.333a1.58,1.58,0,1,0-3.16,0v3.166a1.58,1.58,0,1,0,3.16,0V784.25Zm0,0,19-28.5a1.58,1.58,0,1,0-3.16,0v3.168a1.58,1.58,0,1,0,3.16,0v-3.168Zm0,0-20.58,36.417a1.583,1.583,0,0,0-1.58,1.583v3.167a1.58,1.58,0,1,0,3.16,0v-3.167a1.583,1.583,0,0,0-1.58-1.583h0Zm0,0,26.92,11.083a1.585,1.585,0,0,0-3.17,0v3.167a1.585,1.585,0,0,0,3.17,0v-3.167Zm0,0-1.59,7.916a1.584,1.584,0,0,0-1.58,1.584v6.333a1.585,1.585,0,0,0,3.17,0v-6.333a1.586,1.586,0,0,0-1.59-1.584h0Zm0,0,6.34-19a1.585,1.585,0,0,0-1.59,1.583v3.167a1.585,1.585,0,0,0,3.17,0v-3.167a1.583,1.583,0,0,0-1.58-1.583h0Zm0,0M1361.58,760.5a1.585,1.585,0,0,0,1.59-1.582v-6.68l15.83-3.959v26.471a1.587,1.587,0,0,0,1.03,1.485l11.64,4.363v16.319a1.58,1.58,0,1,0,3.16,0V779.5a1.586,1.586,0,0,0-1.03-1.484l-11.63-4.363V743.083a1.585,1.585,0,0,0-3.17,0v1.93l-17.8,4.451A1.576,1.576,0,0,0,1360,751v7.918a1.583,1.583,0,0,0,1.58,1.582h0Zm0,0,26.92,23.751a1.585,1.585,0,0,0-3.17,0v3.166a1.585,1.585,0,0,0,3.17,0V784.25Zm0,0-6.33,0a1.585,1.585,0,0,0-3.17,0v3.166a1.585,1.585,0,0,0,3.17,0V784.25Zm0,0-12.67,19a1.585,1.585,0,0,0-3.17,0v3.167a1.585,1.585,0,0,0,3.17,0v-3.167Zm0,0,12.67-9.5a1.585,1.585,0,0,0-3.17,0v3.167a1.585,1.585,0,0,0,3.17,0v-3.167Zm0,0-14.25,17.416a1.586,1.586,0,0,0-1.59,1.584v6.333a1.585,1.585,0,0,0,3.17,0v-6.333a1.584,1.584,0,0,0-1.58-1.584h0Zm0,0,1.58-17.416a1.585,1.585,0,0,0-3.17,0v3.167a1.585,1.585,0,0,0,3.17,0v-3.167Zm0,0,4.75,26.917a1.584,1.584,0,0,0,1.58-1.583V768.416a1.578,1.578,0,0,0-1.2-1.536l-25.33-6.333a1.586,1.586,0,0,0-1.97,1.536v34.833a1.585,1.585,0,0,0,3.17,0V764.111l22.17,5.542v49.43a1.584,1.584,0,0,0,1.58,1.583h0Zm0,0-36.42-55.417a1.58,1.58,0,1,0-3.16,0v3.167a1.58,1.58,0,1,0,3.16,0v-3.167Zm0,0,0-9.5a1.58,1.58,0,1,0-3.16,0v3.168a1.58,1.58,0,1,0,3.16,0v-3.168Zm0,0-12.66,47.5a1.585,1.585,0,0,0-3.17,0v3.167a1.585,1.585,0,0,0,3.17,0v-3.167Zm0,0M1310.92,789a1.584,1.584,0,0,0,1.58-1.584V779.5h15.83v39.583a1.585,1.585,0,0,0,3.17,0V777.916a1.584,1.584,0,0,0-1.58-1.583h-19a1.586,1.586,0,0,0-1.59,1.583v9.5a1.586,1.586,0,0,0,1.59,1.584h0Zm0,0,17.41-23.751v3.167a1.585,1.585,0,0,0,3.17,0v-3.167a1.585,1.585,0,0,0-3.17,0h0Zm0,0,9.5-19a1.58,1.58,0,1,0-3.16,0v3.167a1.58,1.58,0,1,0,3.16,0V746.25Zm0,0-14.25,64.915a1.584,1.584,0,0,0-1.58,1.584v6.333a1.585,1.585,0,0,0,3.17,0v-6.333a1.586,1.586,0,0,0-1.59-1.584h0Zm0,0,72.84,12.667h-3.17v-9.725a6.335,6.335,0,1,0-3.17,0v9.725H1350.5v-6.493a7.915,7.915,0,1,0-3.17,0v6.493H1312.5V807.839a7.915,7.915,0,1,0-3.17,0v15.993h-4.75a1.584,1.584,0,0,0,0,3.167h91.84a1.584,1.584,0,0,0,0-3.167h0Zm-90.25-23.749a4.75,4.75,0,1,1,4.75,4.75,4.755,4.755,0,0,1-4.75-4.75h0Zm38,9.5a4.75,4.75,0,1,1,4.75,4.75,4.755,4.755,0,0,1-4.75-4.75h0ZM1388.5,808a3.165,3.165,0,1,1,3.17,3.166A3.17,3.17,0,0,1,1388.5,808h0Zm0,0-72.83,4.75v6.333a1.58,1.58,0,1,0,3.16,0v-6.333a1.58,1.58,0,1,0-3.16,0h0Zm0,0,9.5-28.5a1.585,1.585,0,0,0-3.17,0v3.166a1.585,1.585,0,0,0,3.17,0V784.25Zm0,0,0,9.5a1.585,1.585,0,0,0-3.17,0v3.167a1.585,1.585,0,0,0,3.17,0v-3.167Zm0,0-9.5-9.5v3.166a1.58,1.58,0,1,0,3.16,0V784.25a1.58,1.58,0,1,0-3.16,0h0Zm0,0,22.16,9.5a1.58,1.58,0,1,0-3.16,0v3.167a1.58,1.58,0,1,0,3.16,0v-3.167Zm0,0,6.34-19a1.585,1.585,0,0,0-3.17,0v3.167a1.585,1.585,0,0,0,3.17,0v-3.167Zm0,0,0-9.5a1.585,1.585,0,0,0-3.17,0v3.167a1.585,1.585,0,0,0,3.17,0v-3.167Zm0,0,0,19a1.585,1.585,0,0,0-3.17,0v3.166a1.585,1.585,0,0,0,3.17,0V784.25Zm0,0-1.59,7.916a1.583,1.583,0,0,0-1.58,1.583v3.167a1.585,1.585,0,0,0,3.17,0v-3.167a1.585,1.585,0,0,0-1.59-1.583h0Zm0,0,1.59-36.417a1.585,1.585,0,0,0-3.17,0v3.168a1.585,1.585,0,0,0,3.17,0v-3.168Zm0,0-6.34,47.5a1.58,1.58,0,1,0-3.16,0v3.167a1.58,1.58,0,1,0,3.16,0v-3.167Zm0,0-14.25-30.083a1.586,1.586,0,0,0,1.59-1.583V759.9l5.45-2.729a1.582,1.582,0,0,0,.88-1.417V742.478l7.92-3.958,7.91,3.958v13.271a1.585,1.585,0,0,0,3.17,0V741.5a1.582,1.582,0,0,0-.88-1.417l-8.62-4.311v-2.189a1.585,1.585,0,0,0-3.17,0v2.189l-8.62,4.31a1.585,1.585,0,0,0-.88,1.418v13.271l-5.45,2.727a1.586,1.586,0,0,0-.88,1.418v12.666a1.584,1.584,0,0,0,1.58,1.584h0Zm0,0,14.25,11.084a1.58,1.58,0,1,0-3.16,0v3.166a1.58,1.58,0,1,0,3.16,0V784.25Zm0,0-1.58,26.915a1.584,1.584,0,0,0-1.58,1.584v6.333a1.58,1.58,0,1,0,3.16,0v-6.333a1.584,1.584,0,0,0-1.58-1.584h0Zm0,0,7.92-64.915a1.585,1.585,0,0,0-3.17,0v3.167a1.585,1.585,0,0,0,3.17,0V746.25Zm0,0-6.34,28.5a1.58,1.58,0,1,0-3.16,0v3.167a1.58,1.58,0,1,0,3.16,0v-3.167Zm0,0" transform="translate(-1303 -732)"/>
</svg>
